#tb 0: 1/48000
#media_type 0: audio
#codec_id 0: ac3
#sample_rate 0: 48000
#channel_layout 0: 60f
#channel_layout_name 0: 5.1(side)
0,          0,          0,     1536,     1792, 0xc6250823, S=1,        4, 0x00000000
0,       1536,       1536,     1536,     1792, 0xb76a1098
0,       3072,       3072,     1536,     1792, 0xfe6e1038
0,       4608,       4608,     1536,     1792, 0x102f060a
0,       6144,       6144,     1536,     1792, 0xfd881629
0,       7680,       7680,     1536,     1792, 0x950505f6
0,       9216,       9216,     1536,     1792, 0x3d9a143f
0,      10752,      10752,     1536,     1792, 0xa2261142
0,      12288,      12288,     1536,     1792, 0x9cc9053d
0,      13824,      13824,     1536,     1792, 0xaaeb109b
0,      15360,      15360,     1536,     1792, 0xd36308f6
0,      16896,      16896,     1536,     1792, 0xb08a125d
0,      18432,      18432,     1536,     1792, 0xd8d31026
0,      19968,      19968,     1536,     1792, 0x9b87a34d
0,      21504,      21504,     1536,     1792, 0x51ed77f6
0,      23040,      23040,     1536,     1792, 0x29c16ed2
0,      24576,      24576,     1536,     1792, 0x8c9662d6
0,      26112,      26112,     1536,     1792, 0x32c85025
0,      27648,      27648,     1536,     1792, 0x32914d88
0,      29184,      29184,     1536,     1792, 0x84b9382b
0,      30720,      30720,     1536,     1792, 0x003e4890
0,      32256,      32256,     1536,     1792, 0x70325b4e
0,      33792,      33792,     1536,     1792, 0x80e04a58
0,      35328,      35328,     1536,     1792, 0x2c46323a
0,      36864,      36864,     1536,     1792, 0x7be152a5
0,      38400,      38400,     1536,     1792, 0x08615466
0,      39936,      39936,     1536,     1792, 0x55364eaf
0,      41472,      41472,     1536,     1792, 0x46595d56
0,      43008,      43008,     1536,     1792, 0xdf476ace
0,      44544,      44544,     1536,     1792, 0x9ff767dc
0,      46080,      46080,     1536,     1792, 0xb4d450a7
0,      47616,      47616,     1536,     1792, 0x032c7506
0,      49152,      49152,     1536,     1792, 0x50e35426
0,      50688,      50688,     1536,     1792, 0xe5575597
0,      52224,      52224,     1536,     1792, 0x86565611
0,      53760,      53760,     1536,     1792, 0xed6f54aa
0,      55296,      55296,     1536,     1792, 0x4cee4aab
0,      56832,      56832,     1536,     1792, 0x8aa33ac7
0,      58368,      58368,     1536,     1792, 0xb665442c
0,      59904,      59904,     1536,     1792, 0x9a4b647d
0,      61440,      61440,     1536,     1792, 0xf40d582d
0,      62976,      62976,     1536,     1792, 0xf22e5d98
0,      64512,      64512,     1536,     1792, 0x2f7745be
0,      66048,      66048,     1536,     1792, 0xa918561a
0,      67584,      67584,     1536,     1792, 0x59cc56fb
0,      69120,      69120,     1536,     1792, 0xaefe5dca
0,      70656,      70656,     1536,     1792, 0x80ba657d
0,      72192,      72192,     1536,     1792, 0x09137032
0,      73728,      73728,     1536,     1792, 0xf51b5d34
0,      75264,      75264,     1536,     1792, 0x1d695fb1
0,      76800,      76800,     1536,     1792, 0xf6f56509
0,      78336,      78336,     1536,     1792, 0xd1f658d5
0,      79872,      79872,     1536,     1792, 0xb8614f64
0,      81408,      81408,     1536,     1792, 0x8dd55743
0,      82944,      82944,     1536,     1792, 0xcb1f50df
0,      84480,      84480,     1536,     1440, 0xa129aa95
